PathFileType	4	(X/Y/Z)	C:\human.trc
DataRate	CameraRate	NumFrames	NumMarkers	Units	OrigDataRate	OrigDataStartFrame	OrigNumFrames
200.00	200.00	      11	35	mm	200.00	1194	      2387
Frame#	Time	HEADF			HEADR			HEADL			RSHO			RELBL			RELBM			RWRISTR			RWRISTU			RMP			LSHO			LELBL			LELBM			LWRISTR			LWRISTU			LMP			RPEL			RHIP			RKNEEO			RANK			RHEEL			RPINKY			RTHUMB			LPEL			LHIP			LKNEEO			LANK			LHEEL			LPINKY			LTHUMB			T1			T7			L5			STERNUP			STERNLOW			SCAP			
		X1	Y1	Z1	X2	Y2	Z2	X3	Y3	Z3	X4	Y4	Z4	X5	Y5	Z5	X6	Y6	Z6	X7	Y7	Z7	X8	Y8	Z8	X9	Y9	Z9	X10	Y10	Z10	X11	Y11	Z11	X12	Y12	Z12	X13	Y13	Z13	X14	Y14	Z14	X15	Y15	Z15	X16	Y16	Z16	X17	Y17	Z17	X18	Y18	Z18	X19	Y19	Z19	X20	Y20	Z20	X21	Y21	Z21	X22	Y22	Z22	X23	Y23	Z23	X24	Y24	Z24	X25	Y25	Z25	X26	Y26	Z26	X27	Y27	Z27	X28	Y28	Z28	X29	Y29	Z29	X30	Y30	Z30	X31	Y31	Z31	X32	Y32	Z32	X33	Y33	Z33	X34	Y34	Z34	X35	Y35	Z35	

1194	5.965	4.01382	342.21030	1547.44250	-72.81361	444.34247	1509.81982	83.03576	362.92880	1547.14844	-124.67829	434.01901	1326.78357	-175.25677	161.61742	1307.74072	-131.16536	157.78859	1257.82861	-141.38249	-53.60347	1392.57800	-154.83270	-56.65253	1324.09680	-169.30917	-128.43434	1337.29749	171.03412	417.43539	1341.37939	204.67105	145.24760	1327.21948	155.16936	141.14542	1264.82141	147.27325	-65.87628	1381.66138	179.13388	-69.74610	1322.10876	163.29559	-158.20940	1323.17395	-95.13349	290.57974	895.60803	-142.01825	356.58102	858.69904	-134.81244	346.20840	440.23172	-117.72681	431.89966	73.01793	-74.56958	466.97382	65.23600	-180.01616	337.62836	46.80357	-117.61797	276.07257	53.79041	141.05115	286.07544	896.90381	189.72691	361.18137	837.20978	187.50269	342.86533	457.78598	173.85646	385.81198	89.44538				212.00519	289.18161	48.96185	133.60841	241.07411	53.04875	20.54805	507.94885	1353.20081	30.81813	530.77289	1178.27588	27.75051	459.84869	934.62286	21.67001	376.36569	1283.40613	20.06275	319.80606	1162.14587	-100.97611	519.27856	1170.70068	
1195	5.970	4.04243	342.15918	1547.42847	-72.79588	444.33044	1509.84570	83.18272	362.80569	1547.05835	-124.64846	433.85504	1326.74817	-175.18570	161.53415	1307.64282	-131.92744	158.15398	1258.45276	-141.33264	-53.74384	1392.53760	-155.47675	-56.86893	1324.37964	-169.36673	-128.54900	1337.26721	171.09082	417.37802	1341.32080	204.74942	145.09477	1327.25952	155.33127	140.98381	1264.96021	147.32153	-65.98750	1381.66809	179.21776	-69.86998	1322.13196	163.38237	-158.30450	1323.06531	-95.13926	290.38263	895.55939	-141.98792	356.33679	858.71088	-134.82086	346.12170	440.23068	-117.72627	431.90213	73.03046	-74.57903	466.98010	65.24242	-180.02231	337.62811	46.80905	-117.62606	276.07407	53.78886	141.02528	285.92004	896.83228	189.72404	361.05878	837.23999	187.51378	342.77307	457.84457	173.85374	385.81830	89.44382				212.00049	289.17722	48.95742	133.61348	241.07501	53.04844	20.66060	507.87408	1353.32935	30.81197	530.67102	1178.20129	27.76122	459.69891	935.07019	21.71724	376.25592	1283.41882	20.14461	319.58044	1162.12488	-100.95547	519.07526	1170.60950	
1196	5.975	4.10143	342.08774	1547.32520	-72.69996	444.28131	1509.81458	83.24256	362.54883	1547.09290	-124.57442	433.74942	1326.79736	-175.20219	161.46487	1307.68274	-130.55296	157.56238	1257.62744	-141.34106	-53.90417	1392.56836	-155.11427	-56.86189	1324.12512	-169.32660	-128.71649	1337.25000	171.08969	417.17548	1341.38708	204.73570	145.01366	1327.26978	155.33127	140.98381	1264.96021	147.31438	-66.06764	1381.65955	179.25941	-69.97733	1322.16541	163.41933	-158.44966	1323.18579	-95.14600	290.22360	895.54059	-141.99011	356.18182	858.66626	-134.81224	346.19730	440.21368	-117.71483	431.90811	73.04633	-74.47370	466.72906	65.41845	-180.02602	337.52252	46.89598	-117.63437	276.04034	53.80275	141.04089	285.73508	896.80969	189.72577	360.79025	837.23346	187.49992	342.79196	457.76855	173.85202	385.82709	89.44038				212.00047	289.17877	48.95340	133.60422	241.07596	53.04229	20.68202	507.80765	1353.32239	29.69566	529.43805	1176.79822	27.73422	459.64532	935.11932	21.81873	376.19919	1283.22156	20.30999	319.24609	1162.08423	-100.91405	518.96747	1170.54041	
1197	5.980	4.17246	342.01367	1547.31677	-72.66866	444.25070	1509.80505	83.26277	362.45334	1546.96802	-124.51925	433.68997	1326.82666	-175.14699	161.34959	1307.65015	-131.02925	157.16104	1257.69824	-141.25713	-54.12062	1392.35828	-155.18645	-56.90194	1324.12866	-169.28229	-128.92786	1337.11865	171.23827	417.12991	1341.40808	204.80893	144.96771	1326.99622	155.35361	140.87469	1265.15381	147.32065	-66.17197	1381.63977	179.30902	-70.06935	1322.18909	163.55043	-158.48242	1323.16748	-95.15546	290.04678	895.51172	-142.00670	355.82129	858.64777	-134.82484	346.13806	440.20651	-117.72112	431.90808	73.05515	-74.59052	466.95993	65.23692	-180.03871	337.62946	46.80550	-117.64300	276.02313	53.80320	140.96512	285.36786	896.96051	189.87677	360.94229	837.08716	187.51346	342.75229	457.75583	173.85768	386.06561	89.24086				212.00774	289.18372	48.94841	133.61392	241.07477	53.04240	20.72577	507.72305	1353.25305	29.89938	529.35590	1176.76013	27.72145	459.57431	935.11615	21.85677	376.08093	1283.24194	20.26403	318.94894	1162.31165	-100.86102	518.76074	1170.55457	
1198	5.985	4.26978	341.81314	1547.32068	-72.60081	444.20068	1509.79187	83.32327	362.24918	1547.05884	-124.45669	433.56049	1326.83691	-175.11597	161.28629	1307.64136	-131.02925	157.16104	1257.69824	-141.19316	-54.36948	1392.38708	-155.25999	-57.12326	1324.07910	-169.24689	-129.06306	1336.98962	171.42062	416.88583	1341.50537	204.90915	144.88348	1327.13367	155.35361	140.87469	1265.15381	147.33211	-66.25617	1381.67810	179.76869	-70.72713	1322.05920	163.53427	-158.70963	1323.21411	-95.16942	289.74597	895.49988	-142.06786	355.63519	858.63055	-134.82649	346.13950	440.20776	-117.70355	431.91504	73.06763	-74.70230	466.99088	64.89936	-180.02684	337.57602	46.92706	-117.65942	276.03775	53.79446	140.99590	285.25476	896.89569	189.62874	360.52063	837.21881	187.42030	342.60248	457.72940	173.84738	385.82690	89.44563				212.00259	289.18137	48.95117	133.61400	241.07056	53.04462	20.75568	507.62537	1353.24231	30.05502	529.19537	1176.69116	27.75061	459.43115	935.21771	21.91580	375.91510	1283.27051	20.32322	318.89279	1162.30859	-100.82579	518.52045	1170.53748	
1199	5.990	4.31670	341.75089	1547.29395	-72.54188	444.17184	1509.78442	83.35101	362.19968	1546.92957	-124.44392	433.44882	1326.84265	-175.00114	161.14261	1307.49634	-132.28604	157.69366	1258.40198	-141.17261	-54.55543	1392.39343	-154.22624	-57.41648	1323.48914	-169.19057	-129.25694	1336.80664	171.61304	416.74350	1341.49854	205.02472	144.76999	1327.10095	155.33493	140.64583	1265.57947	147.34201	-66.39538	1381.73010	179.29721	-70.21098	1322.22412	163.51778	-159.10973	1323.22827	-95.20191	289.36230	895.49860	-142.38240	355.15338	858.44397	-134.82347	346.11694	440.20230	-117.70014	431.91809	73.07938	-74.59340	466.97192	65.24371	-180.04175	337.62964	46.80550	-117.66956	276.03271	53.76481	141.03955	285.06317	896.79340	189.62755	360.40137	837.25018	187.44049	342.64420	457.72525	173.84494	385.81866	89.44065				212.00424	289.18396	48.95439	133.62318	241.06950	53.04616	20.81764	507.29468	1353.00415	30.15140	529.02527	1176.67212	27.73767	458.98032	934.80292	21.95037	375.76871	1283.27917	20.38232	318.83566	1162.30493	-100.88870	518.52502	1170.43628	
1200	5.995	4.32938	341.55963	1547.31567	-72.44391	444.13547	1509.78101	83.41770	362.07913	1546.91309	-124.43031	433.27576	1326.76135	-174.93344	161.00108	1307.53064	-131.02925	157.16104	1257.69824	-141.10480	-54.74723	1392.32849	-155.14825	-57.61902	1323.97864	-169.07228	-129.46716	1336.71167	171.73126	416.62054	1341.56592	205.06297	144.47508	1327.18335	154.42467	140.08224	1265.43225	147.39636	-66.52200	1381.82324	179.24924	-70.35046	1322.22998	163.62785	-159.36020	1323.35583	-95.22952	289.15240	895.49799	-142.37430	354.99805	858.46436	-134.82808	346.09412	440.19745	-117.67653	431.92487	73.08226	-74.48708	466.75583	65.43608	-180.03998	337.52344	46.89498	-117.71444	275.90875	53.78772	140.98460	284.94238	896.74652	189.63545	360.16568	837.24036	187.40691	342.55051	457.71652	173.84030	385.82080	89.44382				212.00218	289.18533	48.95242	133.62158	241.06844	53.04305	20.82284	507.21875	1352.92346	30.37097	528.90247	1176.70630	27.76921	458.65396	934.73419	22.00251	375.61887	1283.30884	20.42360	318.76682	1162.28882	-100.82052	518.41150	1170.48303	
1201	6.000	4.44579	341.36819	1547.32739	-72.31200	443.91751	1509.76514	83.52457	361.99612	1546.97986	-124.40378	433.13422	1326.79626	-174.86440	160.92378	1307.51697	-131.02925	157.16104	1257.69824	-141.02538	-54.94775	1392.24866	-154.41331	-57.65560	1323.53613	-168.94170	-129.69713	1336.55945	171.80630	416.45798	1341.61462	205.20770	144.32025	1327.29822	155.01262	139.81070	1265.30249	147.46500	-66.69194	1381.93567	179.24072	-70.74294	1322.42639	163.67508	-159.48636	1323.44702	-95.24760	289.05463	895.49200	-142.37535	354.92294	858.44934	-134.89856	346.02228	440.23016	-117.66921	431.92880	73.09303	-74.43185	466.83051	65.59732	-180.05122	337.62939	46.81272	-117.74460	275.96573	53.76798	140.94211	284.78168	896.70966	189.60155	360.06592	837.24268	187.39720	342.53387	457.71698	173.82133	385.82599	89.45146				211.99968	289.18539	48.95560	133.76778	241.64836	53.02661	20.91571	507.15173	1353.03809	30.57418	528.76239	1176.74927	27.74064	458.57990	934.84192	22.04277	375.50601	1283.29199	20.54993	318.50925	1162.31433	-100.77077	518.27570	1170.51855	
1202	6.005	4.61509	341.16357	1547.28223	-72.18890	443.85956	1509.80933	83.63612	361.87589	1547.08813	-124.35164	433.04037	1326.82361	-174.78812	160.73837	1307.44214	-131.02925	157.16104	1257.69824	-140.96404	-55.16212	1392.24817	-153.97522	-58.21916	1323.30005	-168.87244	-129.83208	1336.42334	171.84996	416.32813	1341.59778	205.31694	144.19543	1327.27307	154.23442	139.66281	1265.34497	147.49939	-66.81361	1382.01501	179.28700	-70.80274	1322.45361	163.75877	-159.64827	1323.54102	-95.25912	288.88834	895.47693	-142.37526	354.85880	858.45007	-134.83580	346.07944	440.19882	-117.66259	431.93341	73.10852	-74.42743	466.81018	65.58598	-180.06180	337.62961	46.81636	-117.72153	276.12228	53.76218	140.97330	284.65332	896.71057	189.61333	359.99451	837.24255	187.37196	342.50159	457.71677	173.81113	385.82495	89.45240				211.99489	289.19000	48.95783	133.62424	241.05814	53.05597	20.97295	507.05688	1353.03772	29.96619	528.13214	1176.32629	27.65266	458.66757	935.44696	22.06283	375.37497	1283.27966	20.64734	318.26379	1162.31335	-100.73664	518.06506	1170.52429	
1203	6.010	4.65695	341.09628	1547.26697	-72.08086	443.78998	1509.82056	83.63104	361.78796	1547.01196	-124.32289	432.82697	1326.82434	-174.62132	160.08684	1307.75403	-130.47609	156.91998	1257.59424	-140.97086	-55.30256	1392.22827	-153.20110	-58.16496	1322.90930	-168.82285	-130.03828	1336.48755	171.87328	416.30893	1341.51465	205.33249	144.09270	1327.23547	154.23442	139.66281	1265.34497	147.52628	-66.90427	1382.07275	179.33234	-70.88703	1322.50537	163.81046	-159.74869	1323.59668	-95.30132	288.76581	895.46954	-142.02466	355.56540	858.65948	-134.84456	346.08734	440.19388	-117.66734	431.93295	73.11280	-74.58986	466.95566	65.23464	-180.06114	337.62982	46.81403	-117.74303	276.14120	53.74937	140.87018	284.25439	896.84235	189.52831	359.84793	837.18738	187.40753	342.32309	457.73334	173.79541	385.83063	89.46016				211.98492	289.18491	48.96547	133.77161	241.65735	53.02140	21.04537	506.98117	1353.07532	30.55499	528.48041	1176.75012	27.56582	458.27667	935.46259	22.14718	375.23480	1283.38379	20.64078	318.07251	1162.44800	-100.74729	517.80334	1170.53430	
1204	6.015	4.70459	341.04398	1547.26660	-71.98932	443.71964	1509.83435	83.68732	361.61807	1546.99023	-124.30525	432.66428	1326.81812	-174.57953	159.86981	1307.89758	-129.87575	156.69577	1257.40247	-140.91527	-55.43816	1392.21240	-154.24930	-58.52271	1323.44861	-168.80914	-130.18088	1336.48584	171.94669	416.10684	1341.64099	205.14270	143.91571	1327.45239	155.13499	139.13939	1265.36218	147.58588	-67.05046	1382.18689	179.32660	-71.08099	1322.44922	163.86458	-159.80815	1323.79053	-95.33424	288.47711	895.43756	-142.03674	355.46005	858.65448	-134.90688	346.04578	440.22604	-117.64282	431.94302	73.13223	-74.68090	467.00015	64.89607	-180.06770	337.63043	46.81202	-117.74831	276.14545	53.76225	140.89891	283.96793	896.76819	189.46730	359.64374	837.16876	187.37320	342.38516	457.73917	173.78151	385.82266	89.47521				211.98132	289.18747	48.97248	133.77208	241.65871	53.02572	21.09173	506.91226	1353.12549	30.60496	528.36829	1176.74292	27.44519	457.97610	935.55597	22.18480	375.14868	1283.44336	20.69696	317.99475	1162.43359	-100.71381	517.71503	1170.57520	
